<mxfile host="65bd71144e">
    <diagram id="FhN0YhwfLMsi-lymDsW3" name="Page-1">
        <mxGraphModel dx="2116" dy="1035" grid="0" gridSize="10" guides="1" tooltips="1" connect="1" arrows="1" fold="1" page="1" pageScale="1" pageWidth="827" pageHeight="1169" math="0" shadow="0">
            <root>
                <mxCell id="0"/>
                <mxCell id="1" parent="0"/>
                <mxCell id="jrHru4hNWrMTznHkmxCw-6" value="" style="rounded=0;whiteSpace=wrap;html=1;fillColor=#f8cecc;strokeColor=#b85450;" parent="1" vertex="1">
                    <mxGeometry x="70" y="29" width="290" height="320" as="geometry"/>
                </mxCell>
                <mxCell id="jrHru4hNWrMTznHkmxCw-11" style="edgeStyle=orthogonalEdgeStyle;rounded=0;orthogonalLoop=1;jettySize=auto;html=1;endArrow=classic;endFill=1;" parent="1" source="jrHru4hNWrMTznHkmxCw-2" target="jrHru4hNWrMTznHkmxCw-12" edge="1">
                    <mxGeometry relative="1" as="geometry">
                        <mxPoint x="270" y="119" as="targetPoint"/>
                    </mxGeometry>
                </mxCell>
                <mxCell id="jrHru4hNWrMTznHkmxCw-26" style="edgeStyle=orthogonalEdgeStyle;rounded=0;orthogonalLoop=1;jettySize=auto;html=1;endArrow=classic;endFill=1;" parent="1" source="jrHru4hNWrMTznHkmxCw-2" target="jrHru4hNWrMTznHkmxCw-28" edge="1">
                    <mxGeometry relative="1" as="geometry">
                        <Array as="points">
                            <mxPoint x="109" y="119"/>
                        </Array>
                    </mxGeometry>
                </mxCell>
                <mxCell id="jrHru4hNWrMTznHkmxCw-27" value="Cfn-init" style="edgeLabel;html=1;align=center;verticalAlign=middle;resizable=0;points=[];rotation=-90;" parent="jrHru4hNWrMTznHkmxCw-26" vertex="1" connectable="0">
                    <mxGeometry x="-0.32" y="1" relative="1" as="geometry">
                        <mxPoint x="-11" y="29" as="offset"/>
                    </mxGeometry>
                </mxCell>
                <mxCell id="jrHru4hNWrMTznHkmxCw-2" value="" style="sketch=0;points=[[0,0,0],[0.25,0,0],[0.5,0,0],[0.75,0,0],[1,0,0],[0,1,0],[0.25,1,0],[0.5,1,0],[0.75,1,0],[1,1,0],[0,0.25,0],[0,0.5,0],[0,0.75,0],[1,0.25,0],[1,0.5,0],[1,0.75,0]];outlineConnect=0;fontColor=#232F3E;gradientColor=#F78E04;gradientDirection=north;fillColor=#D05C17;strokeColor=#ffffff;dashed=0;verticalLabelPosition=bottom;verticalAlign=top;align=center;html=1;fontSize=12;fontStyle=0;aspect=fixed;shape=mxgraph.aws4.resourceIcon;resIcon=mxgraph.aws4.ec2;" parent="1" vertex="1">
                    <mxGeometry x="150" y="99" width="40" height="40" as="geometry"/>
                </mxCell>
                <mxCell id="jrHru4hNWrMTznHkmxCw-9" value="" style="edgeStyle=orthogonalEdgeStyle;rounded=0;orthogonalLoop=1;jettySize=auto;html=1;endArrow=none;endFill=0;dashed=1;" parent="1" source="jrHru4hNWrMTznHkmxCw-4" target="jrHru4hNWrMTznHkmxCw-2" edge="1">
                    <mxGeometry relative="1" as="geometry"/>
                </mxCell>
                <mxCell id="jrHru4hNWrMTznHkmxCw-4" value="Creation policy" style="sketch=0;aspect=fixed;pointerEvents=1;shadow=0;dashed=0;html=1;strokeColor=none;labelPosition=center;verticalLabelPosition=bottom;verticalAlign=top;align=center;fillColor=#00188D;shape=mxgraph.azure.script_file" parent="1" vertex="1">
                    <mxGeometry x="150" y="193.55" width="40" height="42.55" as="geometry"/>
                </mxCell>
                <mxCell id="jrHru4hNWrMTznHkmxCw-5" value="" style="sketch=0;points=[[0,0,0],[0.25,0,0],[0.5,0,0],[0.75,0,0],[1,0,0],[0,1,0],[0.25,1,0],[0.5,1,0],[0.75,1,0],[1,1,0],[0,0.25,0],[0,0.5,0],[0,0.75,0],[1,0.25,0],[1,0.5,0],[1,0.75,0]];points=[[0,0,0],[0.25,0,0],[0.5,0,0],[0.75,0,0],[1,0,0],[0,1,0],[0.25,1,0],[0.5,1,0],[0.75,1,0],[1,1,0],[0,0.25,0],[0,0.5,0],[0,0.75,0],[1,0.25,0],[1,0.5,0],[1,0.75,0]];outlineConnect=0;fontColor=#232F3E;gradientColor=#F34482;gradientDirection=north;fillColor=#BC1356;strokeColor=#ffffff;dashed=0;verticalLabelPosition=bottom;verticalAlign=top;align=center;html=1;fontSize=12;fontStyle=0;aspect=fixed;shape=mxgraph.aws4.resourceIcon;resIcon=mxgraph.aws4.cloudformation;" parent="1" vertex="1">
                    <mxGeometry x="70" y="29" width="48" height="48" as="geometry"/>
                </mxCell>
                <mxCell id="jrHru4hNWrMTznHkmxCw-12" value="External dependencies" style="rounded=1;whiteSpace=wrap;html=1;" parent="1" vertex="1">
                    <mxGeometry x="440" y="89" width="120" height="60" as="geometry"/>
                </mxCell>
                <mxCell id="jrHru4hNWrMTznHkmxCw-28" value="CF&lt;br&gt;endpoint" style="sketch=0;outlineConnect=0;fontColor=#232F3E;gradientColor=none;fillColor=#4D27AA;strokeColor=none;dashed=0;verticalLabelPosition=bottom;verticalAlign=top;align=center;html=1;fontSize=12;fontStyle=0;aspect=fixed;pointerEvents=1;shape=mxgraph.aws4.endpoint;" parent="1" vertex="1">
                    <mxGeometry x="151" y="271" width="38" height="38" as="geometry"/>
                </mxCell>
                <mxCell id="jrHru4hNWrMTznHkmxCw-39" value="" style="rounded=0;whiteSpace=wrap;html=1;fillColor=#fff2cc;strokeColor=#d6b656;" parent="1" vertex="1">
                    <mxGeometry x="70" y="409" width="290" height="320" as="geometry"/>
                </mxCell>
                <mxCell id="jrHru4hNWrMTznHkmxCw-40" style="edgeStyle=orthogonalEdgeStyle;rounded=0;orthogonalLoop=1;jettySize=auto;html=1;endArrow=classic;endFill=1;startArrow=none;" parent="1" source="jrHru4hNWrMTznHkmxCw-49" target="jrHru4hNWrMTznHkmxCw-47" edge="1">
                    <mxGeometry relative="1" as="geometry">
                        <mxPoint x="270" y="499" as="targetPoint"/>
                    </mxGeometry>
                </mxCell>
                <mxCell id="jrHru4hNWrMTznHkmxCw-43" value="" style="sketch=0;points=[[0,0,0],[0.25,0,0],[0.5,0,0],[0.75,0,0],[1,0,0],[0,1,0],[0.25,1,0],[0.5,1,0],[0.75,1,0],[1,1,0],[0,0.25,0],[0,0.5,0],[0,0.75,0],[1,0.25,0],[1,0.5,0],[1,0.75,0]];outlineConnect=0;fontColor=#232F3E;gradientColor=#F78E04;gradientDirection=north;fillColor=#D05C17;strokeColor=#ffffff;dashed=0;verticalLabelPosition=bottom;verticalAlign=top;align=center;html=1;fontSize=12;fontStyle=0;aspect=fixed;shape=mxgraph.aws4.resourceIcon;resIcon=mxgraph.aws4.ec2;" parent="1" vertex="1">
                    <mxGeometry x="150" y="479" width="40" height="40" as="geometry"/>
                </mxCell>
                <mxCell id="jrHru4hNWrMTznHkmxCw-44" value="" style="edgeStyle=orthogonalEdgeStyle;rounded=0;orthogonalLoop=1;jettySize=auto;html=1;endArrow=none;endFill=0;dashed=1;" parent="1" source="jrHru4hNWrMTznHkmxCw-45" target="jrHru4hNWrMTznHkmxCw-43" edge="1">
                    <mxGeometry relative="1" as="geometry"/>
                </mxCell>
                <mxCell id="jrHru4hNWrMTznHkmxCw-45" value="Creation policy" style="sketch=0;aspect=fixed;pointerEvents=1;shadow=0;dashed=0;html=1;strokeColor=none;labelPosition=center;verticalLabelPosition=bottom;verticalAlign=top;align=center;fillColor=#00188D;shape=mxgraph.azure.script_file" parent="1" vertex="1">
                    <mxGeometry x="150" y="573.55" width="40" height="42.55" as="geometry"/>
                </mxCell>
                <mxCell id="jrHru4hNWrMTznHkmxCw-46" value="" style="sketch=0;points=[[0,0,0],[0.25,0,0],[0.5,0,0],[0.75,0,0],[1,0,0],[0,1,0],[0.25,1,0],[0.5,1,0],[0.75,1,0],[1,1,0],[0,0.25,0],[0,0.5,0],[0,0.75,0],[1,0.25,0],[1,0.5,0],[1,0.75,0]];points=[[0,0,0],[0.25,0,0],[0.5,0,0],[0.75,0,0],[1,0,0],[0,1,0],[0.25,1,0],[0.5,1,0],[0.75,1,0],[1,1,0],[0,0.25,0],[0,0.5,0],[0,0.75,0],[1,0.25,0],[1,0.5,0],[1,0.75,0]];outlineConnect=0;fontColor=#232F3E;gradientColor=#F34482;gradientDirection=north;fillColor=#BC1356;strokeColor=#ffffff;dashed=0;verticalLabelPosition=bottom;verticalAlign=top;align=center;html=1;fontSize=12;fontStyle=0;aspect=fixed;shape=mxgraph.aws4.resourceIcon;resIcon=mxgraph.aws4.cloudformation;" parent="1" vertex="1">
                    <mxGeometry x="70" y="409" width="48" height="48" as="geometry"/>
                </mxCell>
                <mxCell id="jrHru4hNWrMTznHkmxCw-47" value="External dependencies" style="rounded=1;whiteSpace=wrap;html=1;" parent="1" vertex="1">
                    <mxGeometry x="440" y="469" width="120" height="60" as="geometry"/>
                </mxCell>
                <mxCell id="jrHru4hNWrMTznHkmxCw-48" value="CF&lt;br&gt;endpoint" style="sketch=0;outlineConnect=0;fontColor=#232F3E;gradientColor=none;fillColor=#4D27AA;strokeColor=none;dashed=0;verticalLabelPosition=bottom;verticalAlign=top;align=center;html=1;fontSize=12;fontStyle=0;aspect=fixed;pointerEvents=1;shape=mxgraph.aws4.endpoint;" parent="1" vertex="1">
                    <mxGeometry x="151" y="651" width="38" height="38" as="geometry"/>
                </mxCell>
                <mxCell id="jrHru4hNWrMTznHkmxCw-51" style="edgeStyle=orthogonalEdgeStyle;rounded=0;orthogonalLoop=1;jettySize=auto;html=1;endArrow=classic;endFill=1;" parent="1" source="jrHru4hNWrMTznHkmxCw-49" target="jrHru4hNWrMTznHkmxCw-48" edge="1">
                    <mxGeometry relative="1" as="geometry">
                        <Array as="points">
                            <mxPoint x="300" y="670"/>
                        </Array>
                    </mxGeometry>
                </mxCell>
                <mxCell id="jrHru4hNWrMTznHkmxCw-49" value="" style="sketch=0;points=[[0,0,0],[0.25,0,0],[0.5,0,0],[0.75,0,0],[1,0,0],[0,1,0],[0.25,1,0],[0.5,1,0],[0.75,1,0],[1,1,0],[0,0.25,0],[0,0.5,0],[0,0.75,0],[1,0.25,0],[1,0.5,0],[1,0.75,0]];outlineConnect=0;fontColor=#232F3E;gradientColor=#F78E04;gradientDirection=north;fillColor=#D05C17;strokeColor=#ffffff;dashed=0;verticalLabelPosition=bottom;verticalAlign=top;align=center;html=1;fontSize=12;fontStyle=0;aspect=fixed;shape=mxgraph.aws4.resourceIcon;resIcon=mxgraph.aws4.lambda;" parent="1" vertex="1">
                    <mxGeometry x="280" y="479" width="40" height="40" as="geometry"/>
                </mxCell>
                <mxCell id="jrHru4hNWrMTznHkmxCw-50" value="" style="edgeStyle=orthogonalEdgeStyle;rounded=0;orthogonalLoop=1;jettySize=auto;html=1;endArrow=none;endFill=1;" parent="1" source="jrHru4hNWrMTznHkmxCw-43" target="jrHru4hNWrMTznHkmxCw-49" edge="1">
                    <mxGeometry relative="1" as="geometry">
                        <mxPoint x="440" y="499" as="targetPoint"/>
                        <mxPoint x="190" y="499" as="sourcePoint"/>
                    </mxGeometry>
                </mxCell>
                <mxCell id="jrHru4hNWrMTznHkmxCw-54" value="AWS cli call" style="edgeLabel;html=1;align=center;verticalAlign=middle;resizable=0;points=[];" parent="jrHru4hNWrMTznHkmxCw-50" vertex="1" connectable="0">
                    <mxGeometry x="-0.1778" relative="1" as="geometry">
                        <mxPoint x="13" as="offset"/>
                    </mxGeometry>
                </mxCell>
                <mxCell id="jrHru4hNWrMTznHkmxCw-55" value="" style="rounded=0;whiteSpace=wrap;html=1;fillColor=#d5e8d4;strokeColor=#82b366;" parent="1" vertex="1">
                    <mxGeometry x="70" y="789" width="350" height="320" as="geometry"/>
                </mxCell>
                <mxCell id="jrHru4hNWrMTznHkmxCw-56" style="edgeStyle=orthogonalEdgeStyle;rounded=0;orthogonalLoop=1;jettySize=auto;html=1;endArrow=classic;endFill=1;startArrow=none;" parent="1" source="jrHru4hNWrMTznHkmxCw-64" target="jrHru4hNWrMTznHkmxCw-61" edge="1">
                    <mxGeometry relative="1" as="geometry">
                        <mxPoint x="270" y="879" as="targetPoint"/>
                        <Array as="points">
                            <mxPoint x="390" y="869"/>
                            <mxPoint x="390" y="869"/>
                        </Array>
                    </mxGeometry>
                </mxCell>
                <mxCell id="jrHru4hNWrMTznHkmxCw-57" value="" style="sketch=0;points=[[0,0,0],[0.25,0,0],[0.5,0,0],[0.75,0,0],[1,0,0],[0,1,0],[0.25,1,0],[0.5,1,0],[0.75,1,0],[1,1,0],[0,0.25,0],[0,0.5,0],[0,0.75,0],[1,0.25,0],[1,0.5,0],[1,0.75,0]];outlineConnect=0;fontColor=#232F3E;gradientColor=#F78E04;gradientDirection=north;fillColor=#D05C17;strokeColor=#ffffff;dashed=0;verticalLabelPosition=bottom;verticalAlign=top;align=center;html=1;fontSize=12;fontStyle=0;aspect=fixed;shape=mxgraph.aws4.resourceIcon;resIcon=mxgraph.aws4.ec2;" parent="1" vertex="1">
                    <mxGeometry x="150" y="859" width="40" height="40" as="geometry"/>
                </mxCell>
                <mxCell id="jrHru4hNWrMTznHkmxCw-58" value="" style="edgeStyle=orthogonalEdgeStyle;rounded=0;orthogonalLoop=1;jettySize=auto;html=1;endArrow=none;endFill=0;dashed=1;" parent="1" source="jrHru4hNWrMTznHkmxCw-59" target="jrHru4hNWrMTznHkmxCw-57" edge="1">
                    <mxGeometry relative="1" as="geometry"/>
                </mxCell>
                <mxCell id="jrHru4hNWrMTznHkmxCw-59" value="Creation policy" style="sketch=0;aspect=fixed;pointerEvents=1;shadow=0;dashed=0;html=1;strokeColor=none;labelPosition=center;verticalLabelPosition=bottom;verticalAlign=top;align=center;fillColor=#00188D;shape=mxgraph.azure.script_file" parent="1" vertex="1">
                    <mxGeometry x="150" y="953.55" width="40" height="42.55" as="geometry"/>
                </mxCell>
                <mxCell id="jrHru4hNWrMTznHkmxCw-60" value="" style="sketch=0;points=[[0,0,0],[0.25,0,0],[0.5,0,0],[0.75,0,0],[1,0,0],[0,1,0],[0.25,1,0],[0.5,1,0],[0.75,1,0],[1,1,0],[0,0.25,0],[0,0.5,0],[0,0.75,0],[1,0.25,0],[1,0.5,0],[1,0.75,0]];points=[[0,0,0],[0.25,0,0],[0.5,0,0],[0.75,0,0],[1,0,0],[0,1,0],[0.25,1,0],[0.5,1,0],[0.75,1,0],[1,1,0],[0,0.25,0],[0,0.5,0],[0,0.75,0],[1,0.25,0],[1,0.5,0],[1,0.75,0]];outlineConnect=0;fontColor=#232F3E;gradientColor=#F34482;gradientDirection=north;fillColor=#BC1356;strokeColor=#ffffff;dashed=0;verticalLabelPosition=bottom;verticalAlign=top;align=center;html=1;fontSize=12;fontStyle=0;aspect=fixed;shape=mxgraph.aws4.resourceIcon;resIcon=mxgraph.aws4.cloudformation;" parent="1" vertex="1">
                    <mxGeometry x="70" y="789" width="48" height="48" as="geometry"/>
                </mxCell>
                <mxCell id="jrHru4hNWrMTznHkmxCw-61" value="External dependencies" style="rounded=1;whiteSpace=wrap;html=1;" parent="1" vertex="1">
                    <mxGeometry x="440" y="849" width="120" height="60" as="geometry"/>
                </mxCell>
                <mxCell id="jrHru4hNWrMTznHkmxCw-62" value="CF&lt;br&gt;endpoint" style="sketch=0;outlineConnect=0;fontColor=#232F3E;gradientColor=none;fillColor=#4D27AA;strokeColor=none;dashed=0;verticalLabelPosition=bottom;verticalAlign=top;align=center;html=1;fontSize=12;fontStyle=0;aspect=fixed;pointerEvents=1;shape=mxgraph.aws4.endpoint;" parent="1" vertex="1">
                    <mxGeometry x="151" y="1031" width="38" height="38" as="geometry"/>
                </mxCell>
                <mxCell id="jrHru4hNWrMTznHkmxCw-63" style="edgeStyle=orthogonalEdgeStyle;rounded=0;orthogonalLoop=1;jettySize=auto;html=1;endArrow=classic;endFill=1;" parent="1" source="jrHru4hNWrMTznHkmxCw-64" target="jrHru4hNWrMTznHkmxCw-62" edge="1">
                    <mxGeometry relative="1" as="geometry">
                        <Array as="points">
                            <mxPoint x="250" y="889"/>
                            <mxPoint x="250" y="1050"/>
                        </Array>
                    </mxGeometry>
                </mxCell>
                <mxCell id="jrHru4hNWrMTznHkmxCw-81" value="Success" style="edgeLabel;html=1;align=center;verticalAlign=middle;resizable=0;points=[];rotation=-90;" parent="jrHru4hNWrMTznHkmxCw-63" vertex="1" connectable="0">
                    <mxGeometry x="-0.3413" y="1" relative="1" as="geometry">
                        <mxPoint x="-11" y="12" as="offset"/>
                    </mxGeometry>
                </mxCell>
                <mxCell id="jrHru4hNWrMTznHkmxCw-76" style="edgeStyle=orthogonalEdgeStyle;rounded=0;orthogonalLoop=1;jettySize=auto;html=1;endArrow=classic;endFill=1;" parent="1" source="jrHru4hNWrMTznHkmxCw-64" target="jrHru4hNWrMTznHkmxCw-73" edge="1">
                    <mxGeometry relative="1" as="geometry">
                        <Array as="points">
                            <mxPoint x="330" y="894"/>
                            <mxPoint x="330" y="894"/>
                        </Array>
                    </mxGeometry>
                </mxCell>
                <mxCell id="jrHru4hNWrMTznHkmxCw-79" style="edgeStyle=orthogonalEdgeStyle;rounded=0;orthogonalLoop=1;jettySize=auto;html=1;entryX=0;entryY=0.5;entryDx=0;entryDy=0;entryPerimeter=0;endArrow=classic;endFill=1;" parent="1" source="jrHru4hNWrMTznHkmxCw-64" target="jrHru4hNWrMTznHkmxCw-77" edge="1">
                    <mxGeometry relative="1" as="geometry">
                        <Array as="points">
                            <mxPoint x="300" y="1016"/>
                        </Array>
                    </mxGeometry>
                </mxCell>
                <mxCell id="jrHru4hNWrMTznHkmxCw-80" value="Incident on failure" style="edgeLabel;html=1;align=center;verticalAlign=middle;resizable=0;points=[];rotation=-90;" parent="jrHru4hNWrMTznHkmxCw-79" vertex="1" connectable="0">
                    <mxGeometry x="-0.2321" y="2" relative="1" as="geometry">
                        <mxPoint x="-12" as="offset"/>
                    </mxGeometry>
                </mxCell>
                <mxCell id="jrHru4hNWrMTznHkmxCw-64" value="" style="sketch=0;points=[[0,0,0],[0.25,0,0],[0.5,0,0],[0.75,0,0],[1,0,0],[0,1,0],[0.25,1,0],[0.5,1,0],[0.75,1,0],[1,1,0],[0,0.25,0],[0,0.5,0],[0,0.75,0],[1,0.25,0],[1,0.5,0],[1,0.75,0]];outlineConnect=0;fontColor=#232F3E;gradientColor=#F78E04;gradientDirection=north;fillColor=#D05C17;strokeColor=#ffffff;dashed=0;verticalLabelPosition=bottom;verticalAlign=top;align=center;html=1;fontSize=12;fontStyle=0;aspect=fixed;shape=mxgraph.aws4.resourceIcon;resIcon=mxgraph.aws4.lambda;" parent="1" vertex="1">
                    <mxGeometry x="280" y="859" width="40" height="40" as="geometry"/>
                </mxCell>
                <mxCell id="jrHru4hNWrMTznHkmxCw-74" style="edgeStyle=orthogonalEdgeStyle;rounded=0;orthogonalLoop=1;jettySize=auto;html=1;endArrow=classic;endFill=1;" parent="1" source="jrHru4hNWrMTznHkmxCw-67" target="jrHru4hNWrMTznHkmxCw-64" edge="1">
                    <mxGeometry relative="1" as="geometry">
                        <Array as="points">
                            <mxPoint x="245" y="879"/>
                        </Array>
                    </mxGeometry>
                </mxCell>
                <mxCell id="jrHru4hNWrMTznHkmxCw-67" value="" style="sketch=0;outlineConnect=0;fontColor=#232F3E;gradientColor=none;fillColor=#B0084D;strokeColor=none;dashed=0;verticalLabelPosition=bottom;verticalAlign=top;align=center;html=1;fontSize=12;fontStyle=0;aspect=fixed;pointerEvents=1;shape=mxgraph.aws4.event_time_based;" parent="1" vertex="1">
                    <mxGeometry x="230" y="798" width="30" height="30" as="geometry"/>
                </mxCell>
                <mxCell id="jrHru4hNWrMTznHkmxCw-71" style="edgeStyle=orthogonalEdgeStyle;rounded=0;orthogonalLoop=1;jettySize=auto;html=1;entryX=0.5;entryY=0;entryDx=0;entryDy=0;entryPerimeter=0;endArrow=classic;endFill=1;" parent="1" source="jrHru4hNWrMTznHkmxCw-68" target="jrHru4hNWrMTznHkmxCw-64" edge="1">
                    <mxGeometry relative="1" as="geometry"/>
                </mxCell>
                <mxCell id="jrHru4hNWrMTznHkmxCw-68" value="" style="sketch=0;outlineConnect=0;fontColor=#232F3E;gradientColor=none;fillColor=#B0084D;strokeColor=none;dashed=0;verticalLabelPosition=bottom;verticalAlign=top;align=center;html=1;fontSize=12;fontStyle=0;aspect=fixed;pointerEvents=1;shape=mxgraph.aws4.parameter_store;" parent="1" vertex="1">
                    <mxGeometry x="282.16999999999996" y="798" width="35.67" height="37.1" as="geometry"/>
                </mxCell>
                <mxCell id="jrHru4hNWrMTznHkmxCw-73" value="Checks" style="rounded=0;whiteSpace=wrap;html=1;" parent="1" vertex="1">
                    <mxGeometry x="350" y="879" width="60" height="30" as="geometry"/>
                </mxCell>
                <mxCell id="jrHru4hNWrMTznHkmxCw-77" value="" style="sketch=0;points=[[0,0,0],[0.25,0,0],[0.5,0,0],[0.75,0,0],[1,0,0],[0,1,0],[0.25,1,0],[0.5,1,0],[0.75,1,0],[1,1,0],[0,0.25,0],[0,0.5,0],[0,0.75,0],[1,0.25,0],[1,0.5,0],[1,0.75,0]];points=[[0,0,0],[0.25,0,0],[0.5,0,0],[0.75,0,0],[1,0,0],[0,1,0],[0.25,1,0],[0.5,1,0],[0.75,1,0],[1,1,0],[0,0.25,0],[0,0.5,0],[0,0.75,0],[1,0.25,0],[1,0.5,0],[1,0.75,0]];outlineConnect=0;fontColor=#232F3E;gradientColor=#F34482;gradientDirection=north;fillColor=#BC1356;strokeColor=#ffffff;dashed=0;verticalLabelPosition=bottom;verticalAlign=top;align=center;html=1;fontSize=12;fontStyle=0;aspect=fixed;shape=mxgraph.aws4.resourceIcon;resIcon=mxgraph.aws4.systems_manager_incident_manager;" parent="1" vertex="1">
                    <mxGeometry x="360" y="996.0999999999999" width="40" height="40" as="geometry"/>
                </mxCell>
                <mxCell id="jrHru4hNWrMTznHkmxCw-82" value="" style="sketch=0;points=[[0,0,0],[0.25,0,0],[0.5,0,0],[0.75,0,0],[1,0,0],[0,1,0],[0.25,1,0],[0.5,1,0],[0.75,1,0],[1,1,0],[0,0.25,0],[0,0.5,0],[0,0.75,0],[1,0.25,0],[1,0.5,0],[1,0.75,0]];outlineConnect=0;fontColor=#232F3E;gradientColor=#F78E04;gradientDirection=north;fillColor=#D05C17;strokeColor=#ffffff;dashed=0;verticalLabelPosition=bottom;verticalAlign=top;align=center;html=1;fontSize=12;fontStyle=0;aspect=fixed;shape=mxgraph.aws4.resourceIcon;resIcon=mxgraph.aws4.lambda;" parent="1" vertex="1">
                    <mxGeometry x="662" y="740" width="40" height="40" as="geometry"/>
                </mxCell>
                <mxCell id="jrHru4hNWrMTznHkmxCw-86" style="edgeStyle=orthogonalEdgeStyle;rounded=0;orthogonalLoop=1;jettySize=auto;html=1;endArrow=classic;endFill=1;" parent="1" source="jrHru4hNWrMTznHkmxCw-84" target="jrHru4hNWrMTznHkmxCw-85" edge="1">
                    <mxGeometry relative="1" as="geometry"/>
                </mxCell>
                <mxCell id="jrHru4hNWrMTznHkmxCw-87" value="IsUpdate" style="edgeLabel;html=1;align=center;verticalAlign=middle;resizable=0;points=[];" parent="jrHru4hNWrMTznHkmxCw-86" vertex="1" connectable="0">
                    <mxGeometry x="-0.3889" relative="1" as="geometry">
                        <mxPoint y="14" as="offset"/>
                    </mxGeometry>
                </mxCell>
                <mxCell id="jrHru4hNWrMTznHkmxCw-151" value="" style="edgeStyle=orthogonalEdgeStyle;rounded=0;orthogonalLoop=1;jettySize=auto;html=1;endArrow=classic;endFill=1;entryX=0.5;entryY=0;entryDx=0;entryDy=0;" parent="1" source="jrHru4hNWrMTznHkmxCw-84" target="jrHru4hNWrMTznHkmxCw-153" edge="1">
                    <mxGeometry relative="1" as="geometry">
                        <mxPoint x="920" y="889" as="targetPoint"/>
                    </mxGeometry>
                </mxCell>
                <mxCell id="jrHru4hNWrMTznHkmxCw-152" value="IsDelete" style="edgeLabel;html=1;align=center;verticalAlign=middle;resizable=0;points=[];" parent="jrHru4hNWrMTznHkmxCw-151" vertex="1" connectable="0">
                    <mxGeometry x="0.299" relative="1" as="geometry">
                        <mxPoint as="offset"/>
                    </mxGeometry>
                </mxCell>
                <mxCell id="jrHru4hNWrMTznHkmxCw-156" value="" style="edgeStyle=orthogonalEdgeStyle;rounded=0;orthogonalLoop=1;jettySize=auto;html=1;endArrow=classic;endFill=1;" parent="1" source="jrHru4hNWrMTznHkmxCw-84" target="jrHru4hNWrMTznHkmxCw-155" edge="1">
                    <mxGeometry relative="1" as="geometry"/>
                </mxCell>
                <mxCell id="jrHru4hNWrMTznHkmxCw-157" value="IsCreate" style="edgeLabel;html=1;align=center;verticalAlign=middle;resizable=0;points=[];" parent="jrHru4hNWrMTznHkmxCw-156" vertex="1" connectable="0">
                    <mxGeometry x="0.5623" y="1" relative="1" as="geometry">
                        <mxPoint as="offset"/>
                    </mxGeometry>
                </mxCell>
                <mxCell id="jrHru4hNWrMTznHkmxCw-84" value="Check custom signal" style="rounded=0;whiteSpace=wrap;html=1;" parent="1" vertex="1">
                    <mxGeometry x="1010" y="747" width="120" height="60" as="geometry"/>
                </mxCell>
                <mxCell id="jrHru4hNWrMTznHkmxCw-145" style="edgeStyle=orthogonalEdgeStyle;rounded=0;orthogonalLoop=1;jettySize=auto;html=1;endArrow=classic;endFill=1;" parent="1" source="jrHru4hNWrMTznHkmxCw-85" target="jrHru4hNWrMTznHkmxCw-144" edge="1">
                    <mxGeometry relative="1" as="geometry"/>
                </mxCell>
                <mxCell id="jrHru4hNWrMTznHkmxCw-85" value="Sets parameter to enabled_&amp;lt;increment_0&amp;gt;&lt;br&gt;INIT" style="rounded=0;whiteSpace=wrap;html=1;" parent="1" vertex="1">
                    <mxGeometry x="1002.5" y="879" width="135" height="60" as="geometry"/>
                </mxCell>
                <mxCell id="jrHru4hNWrMTznHkmxCw-89" value="Custom resource&lt;br&gt;(initial trigger)" style="edgeStyle=orthogonalEdgeStyle;rounded=0;orthogonalLoop=1;jettySize=auto;html=1;endArrow=classic;endFill=1;" parent="1" source="jrHru4hNWrMTznHkmxCw-88" target="jrHru4hNWrMTznHkmxCw-84" edge="1">
                    <mxGeometry relative="1" as="geometry">
                        <Array as="points">
                            <mxPoint x="1070" y="727"/>
                            <mxPoint x="1070" y="727"/>
                        </Array>
                    </mxGeometry>
                </mxCell>
                <mxCell id="jrHru4hNWrMTznHkmxCw-93" style="edgeStyle=orthogonalEdgeStyle;rounded=0;orthogonalLoop=1;jettySize=auto;html=1;endArrow=classic;endFill=1;entryX=0.5;entryY=0;entryDx=0;entryDy=0;" parent="1" source="jrHru4hNWrMTznHkmxCw-88" target="jrHru4hNWrMTznHkmxCw-103" edge="1">
                    <mxGeometry relative="1" as="geometry"/>
                </mxCell>
                <mxCell id="jrHru4hNWrMTznHkmxCw-94" value="Scheduler&lt;br&gt;(will get triggered after 5 min)" style="edgeLabel;html=1;align=center;verticalAlign=middle;resizable=0;points=[];" parent="jrHru4hNWrMTznHkmxCw-93" vertex="1" connectable="0">
                    <mxGeometry x="0.6064" y="-1" relative="1" as="geometry">
                        <mxPoint x="1" y="-79" as="offset"/>
                    </mxGeometry>
                </mxCell>
                <mxCell id="jrHru4hNWrMTznHkmxCw-123" value="No" style="edgeLabel;html=1;align=center;verticalAlign=middle;resizable=0;points=[];" parent="jrHru4hNWrMTznHkmxCw-93" vertex="1" connectable="0">
                    <mxGeometry x="0.8635" y="1" relative="1" as="geometry">
                        <mxPoint as="offset"/>
                    </mxGeometry>
                </mxCell>
                <mxCell id="jrHru4hNWrMTznHkmxCw-95" value="Else" style="edgeStyle=orthogonalEdgeStyle;rounded=0;orthogonalLoop=1;jettySize=auto;html=1;endArrow=classic;endFill=1;" parent="1" source="jrHru4hNWrMTznHkmxCw-88" edge="1">
                    <mxGeometry relative="1" as="geometry">
                        <mxPoint x="953" y="670" as="targetPoint"/>
                    </mxGeometry>
                </mxCell>
                <mxCell id="jrHru4hNWrMTznHkmxCw-88" value="Called from" style="rounded=0;whiteSpace=wrap;html=1;" parent="1" vertex="1">
                    <mxGeometry x="1010" y="640" width="120" height="60" as="geometry"/>
                </mxCell>
                <mxCell id="jrHru4hNWrMTznHkmxCw-96" value="No processing&lt;br&gt;PASS" style="rounded=0;whiteSpace=wrap;html=1;fillColor=#d5e8d4;strokeColor=#82b366;" parent="1" vertex="1">
                    <mxGeometry x="877" y="647" width="76" height="42" as="geometry"/>
                </mxCell>
                <mxCell id="jrHru4hNWrMTznHkmxCw-106" style="edgeStyle=orthogonalEdgeStyle;rounded=0;orthogonalLoop=1;jettySize=auto;html=1;endArrow=classic;endFill=1;" parent="1" source="jrHru4hNWrMTznHkmxCw-103" edge="1">
                    <mxGeometry relative="1" as="geometry">
                        <mxPoint x="1389" y="861" as="targetPoint"/>
                    </mxGeometry>
                </mxCell>
                <mxCell id="jrHru4hNWrMTznHkmxCw-108" value="No" style="edgeLabel;html=1;align=center;verticalAlign=middle;resizable=0;points=[];" parent="jrHru4hNWrMTznHkmxCw-106" vertex="1" connectable="0">
                    <mxGeometry x="-0.3433" y="1" relative="1" as="geometry">
                        <mxPoint x="8" y="1" as="offset"/>
                    </mxGeometry>
                </mxCell>
                <mxCell id="jrHru4hNWrMTznHkmxCw-110" style="edgeStyle=orthogonalEdgeStyle;rounded=0;orthogonalLoop=1;jettySize=auto;html=1;endArrow=classic;endFill=1;" parent="1" source="jrHru4hNWrMTznHkmxCw-103" target="jrHru4hNWrMTznHkmxCw-109" edge="1">
                    <mxGeometry relative="1" as="geometry"/>
                </mxCell>
                <mxCell id="jrHru4hNWrMTznHkmxCw-121" value="Yes" style="edgeLabel;html=1;align=center;verticalAlign=middle;resizable=0;points=[];" parent="jrHru4hNWrMTznHkmxCw-110" vertex="1" connectable="0">
                    <mxGeometry x="0.6252" relative="1" as="geometry">
                        <mxPoint y="-6" as="offset"/>
                    </mxGeometry>
                </mxCell>
                <mxCell id="jrHru4hNWrMTznHkmxCw-103" value="Checks increment below threshold" style="rounded=0;whiteSpace=wrap;html=1;" parent="1" vertex="1">
                    <mxGeometry x="1202" y="831" width="120" height="60" as="geometry"/>
                </mxCell>
                <mxCell id="jrHru4hNWrMTznHkmxCw-125" style="edgeStyle=orthogonalEdgeStyle;rounded=0;orthogonalLoop=1;jettySize=auto;html=1;entryX=0;entryY=0.75;entryDx=0;entryDy=0;endArrow=classic;endFill=1;" parent="1" source="jrHru4hNWrMTznHkmxCw-107" target="jrHru4hNWrMTznHkmxCw-116" edge="1">
                    <mxGeometry relative="1" as="geometry">
                        <Array as="points">
                            <mxPoint x="1449" y="780"/>
                        </Array>
                    </mxGeometry>
                </mxCell>
                <mxCell id="jrHru4hNWrMTznHkmxCw-107" value="Raise incident" style="rounded=0;whiteSpace=wrap;html=1;fillColor=#f8cecc;strokeColor=#b85450;" parent="1" vertex="1">
                    <mxGeometry x="1389" y="831" width="120" height="60" as="geometry"/>
                </mxCell>
                <mxCell id="jrHru4hNWrMTznHkmxCw-112" style="edgeStyle=orthogonalEdgeStyle;rounded=0;orthogonalLoop=1;jettySize=auto;html=1;entryX=0.5;entryY=0;entryDx=0;entryDy=0;endArrow=classic;endFill=1;" parent="1" source="jrHru4hNWrMTznHkmxCw-109" target="jrHru4hNWrMTznHkmxCw-111" edge="1">
                    <mxGeometry relative="1" as="geometry"/>
                </mxCell>
                <mxCell id="jrHru4hNWrMTznHkmxCw-114" value="" style="edgeStyle=orthogonalEdgeStyle;rounded=0;orthogonalLoop=1;jettySize=auto;html=1;endArrow=classic;endFill=1;" parent="1" source="jrHru4hNWrMTznHkmxCw-109" target="jrHru4hNWrMTznHkmxCw-113" edge="1">
                    <mxGeometry relative="1" as="geometry"/>
                </mxCell>
                <mxCell id="jrHru4hNWrMTznHkmxCw-115" value="NOK" style="edgeLabel;html=1;align=center;verticalAlign=middle;resizable=0;points=[];" parent="jrHru4hNWrMTznHkmxCw-114" vertex="1" connectable="0">
                    <mxGeometry x="-0.1884" relative="1" as="geometry">
                        <mxPoint x="7" as="offset"/>
                    </mxGeometry>
                </mxCell>
                <mxCell id="jrHru4hNWrMTznHkmxCw-109" value="Check EC2 instance&amp;nbsp;" style="rounded=0;whiteSpace=wrap;html=1;" parent="1" vertex="1">
                    <mxGeometry x="1202" y="917.1" width="120" height="60" as="geometry"/>
                </mxCell>
                <mxCell id="jrHru4hNWrMTznHkmxCw-129" style="edgeStyle=orthogonalEdgeStyle;rounded=0;orthogonalLoop=1;jettySize=auto;html=1;endArrow=classic;endFill=1;" parent="1" source="jrHru4hNWrMTznHkmxCw-111" target="jrHru4hNWrMTznHkmxCw-128" edge="1">
                    <mxGeometry relative="1" as="geometry">
                        <mxPoint x="1262" y="1101" as="targetPoint"/>
                    </mxGeometry>
                </mxCell>
                <mxCell id="jrHru4hNWrMTznHkmxCw-111" value="Run custom checks&amp;nbsp;" style="rounded=0;whiteSpace=wrap;html=1;" parent="1" vertex="1">
                    <mxGeometry x="1202" y="1010.9999999999998" width="120" height="60" as="geometry"/>
                </mxCell>
                <mxCell id="jrHru4hNWrMTznHkmxCw-136" style="edgeStyle=orthogonalEdgeStyle;rounded=0;orthogonalLoop=1;jettySize=auto;html=1;entryX=1;entryY=0.5;entryDx=0;entryDy=0;endArrow=classic;endFill=1;" parent="1" source="jrHru4hNWrMTznHkmxCw-113" target="jrHru4hNWrMTznHkmxCw-134" edge="1">
                    <mxGeometry relative="1" as="geometry">
                        <Array as="points">
                            <mxPoint x="1451" y="1222"/>
                        </Array>
                    </mxGeometry>
                </mxCell>
                <mxCell id="jrHru4hNWrMTznHkmxCw-113" value="Pass test" style="whiteSpace=wrap;html=1;rounded=0;fillColor=#fff2cc;strokeColor=#d6b656;" parent="1" vertex="1">
                    <mxGeometry x="1391" y="917.1" width="120" height="60" as="geometry"/>
                </mxCell>
                <mxCell id="jrHru4hNWrMTznHkmxCw-119" style="edgeStyle=orthogonalEdgeStyle;rounded=0;orthogonalLoop=1;jettySize=auto;html=1;endArrow=classic;endFill=1;" parent="1" source="jrHru4hNWrMTznHkmxCw-116" target="jrHru4hNWrMTznHkmxCw-117" edge="1">
                    <mxGeometry relative="1" as="geometry"/>
                </mxCell>
                <mxCell id="jrHru4hNWrMTznHkmxCw-116" value="Reset parameter&lt;br&gt;to enabled_increment_0" style="rounded=0;whiteSpace=wrap;html=1;" parent="1" vertex="1">
                    <mxGeometry x="1546" y="734.9999999999998" width="120" height="60" as="geometry"/>
                </mxCell>
                <mxCell id="jrHru4hNWrMTznHkmxCw-141" style="edgeStyle=orthogonalEdgeStyle;rounded=0;orthogonalLoop=1;jettySize=auto;html=1;endArrow=classic;endFill=1;" parent="1" source="jrHru4hNWrMTznHkmxCw-117" target="jrHru4hNWrMTznHkmxCw-140" edge="1">
                    <mxGeometry relative="1" as="geometry"/>
                </mxCell>
                <mxCell id="jrHru4hNWrMTznHkmxCw-117" value="Disable scheduler&lt;br&gt;w API call" style="rounded=0;whiteSpace=wrap;html=1;" parent="1" vertex="1">
                    <mxGeometry x="1703" y="734.9999999999998" width="120" height="60" as="geometry"/>
                </mxCell>
                <mxCell id="jrHru4hNWrMTznHkmxCw-124" style="edgeStyle=orthogonalEdgeStyle;rounded=0;orthogonalLoop=1;jettySize=auto;html=1;endArrow=classic;endFill=1;" parent="1" source="jrHru4hNWrMTznHkmxCw-120" target="jrHru4hNWrMTznHkmxCw-116" edge="1">
                    <mxGeometry relative="1" as="geometry"/>
                </mxCell>
                <mxCell id="jrHru4hNWrMTznHkmxCw-139" value="Yes" style="edgeLabel;html=1;align=center;verticalAlign=middle;resizable=0;points=[];" parent="jrHru4hNWrMTznHkmxCw-124" vertex="1" connectable="0">
                    <mxGeometry x="-0.1875" y="-1" relative="1" as="geometry">
                        <mxPoint as="offset"/>
                    </mxGeometry>
                </mxCell>
                <mxCell id="jrHru4hNWrMTznHkmxCw-120" value="Check success suffix" style="rounded=0;whiteSpace=wrap;html=1;" parent="1" vertex="1">
                    <mxGeometry x="1202" y="734.9999999999998" width="120" height="60" as="geometry"/>
                </mxCell>
                <mxCell id="jrHru4hNWrMTznHkmxCw-135" style="edgeStyle=orthogonalEdgeStyle;rounded=0;orthogonalLoop=1;jettySize=auto;html=1;endArrow=classic;endFill=1;" parent="1" source="jrHru4hNWrMTznHkmxCw-128" target="jrHru4hNWrMTznHkmxCw-134" edge="1">
                    <mxGeometry relative="1" as="geometry"/>
                </mxCell>
                <mxCell id="jrHru4hNWrMTznHkmxCw-128" value="Add success suffix" style="rounded=0;whiteSpace=wrap;html=1;" parent="1" vertex="1">
                    <mxGeometry x="1202" y="1104.9999999999998" width="120" height="60" as="geometry"/>
                </mxCell>
                <mxCell id="jrHru4hNWrMTznHkmxCw-131" value="initial value: enabled_increment_0&lt;br&gt;transition values: enabled_increment_&amp;lt;i&amp;gt;&lt;br&gt;&lt;div&gt;&lt;span&gt;final value: enabled_increment_&amp;lt;i&amp;gt;_success or enabled_increment_&amp;lt;threshold&amp;gt;&lt;/span&gt;&lt;/div&gt;" style="text;html=1;align=left;verticalAlign=middle;resizable=0;points=[];autosize=1;strokeColor=none;fillColor=none;" parent="1" vertex="1">
                    <mxGeometry x="1172" y="562" width="436" height="46" as="geometry"/>
                </mxCell>
                <mxCell id="jrHru4hNWrMTznHkmxCw-138" style="edgeStyle=orthogonalEdgeStyle;rounded=0;orthogonalLoop=1;jettySize=auto;html=1;endArrow=classic;endFill=1;" parent="1" source="jrHru4hNWrMTznHkmxCw-134" target="jrHru4hNWrMTznHkmxCw-137" edge="1">
                    <mxGeometry relative="1" as="geometry"/>
                </mxCell>
                <mxCell id="jrHru4hNWrMTznHkmxCw-134" value="Increment" style="rounded=0;whiteSpace=wrap;html=1;" parent="1" vertex="1">
                    <mxGeometry x="1202" y="1191.9999999999998" width="120" height="60" as="geometry"/>
                </mxCell>
                <mxCell id="jrHru4hNWrMTznHkmxCw-137" value="End" style="rounded=0;whiteSpace=wrap;html=1;" parent="1" vertex="1">
                    <mxGeometry x="1237" y="1292" width="50" height="39" as="geometry"/>
                </mxCell>
                <mxCell id="jrHru4hNWrMTznHkmxCw-140" value="CFN signal success" style="rounded=0;whiteSpace=wrap;html=1;" parent="1" vertex="1">
                    <mxGeometry x="1860" y="734.9999999999998" width="120" height="60" as="geometry"/>
                </mxCell>
                <mxCell id="jrHru4hNWrMTznHkmxCw-143" value="" style="verticalLabelPosition=bottom;html=1;verticalAlign=top;strokeWidth=2;shape=mxgraph.lean_mapping.physical_pull;pointerEvents=1;" parent="1" vertex="1">
                    <mxGeometry x="1292" y="651" width="40" height="40" as="geometry"/>
                </mxCell>
                <mxCell id="jrHru4hNWrMTznHkmxCw-144" value="Enable scheduler&lt;br&gt;w API call" style="rounded=0;whiteSpace=wrap;html=1;" parent="1" vertex="1">
                    <mxGeometry x="1010" y="976.0999999999998" width="120" height="60" as="geometry"/>
                </mxCell>
                <mxCell id="jrHru4hNWrMTznHkmxCw-148" value="custom must run on every update that requires ec2 update.&lt;br&gt;- a way of doing so is to map the params of the ec2 to the custom&lt;br&gt;- another way is an UUID macro&lt;br&gt;&lt;br&gt;Alternative is cloudwatch even listening to runinstances action.&lt;br&gt;&lt;span style=&quot;color: rgba(0, 0, 0, 0); font-family: monospace; font-size: 0px;&quot;&gt;%3CmxGraphModel%3E%3Croot%3E%3CmxCell%20id%3D%220%22%2F%3E%3CmxCell%20id%3D%221%22%20parent%3D%220%22%2F%3E%3CmxCell%20id%3D%222%22%20value%3D%22Alternative%20is%20cloudwatch%20event%20listening%20to%20runinstances%20action.%22%20style%3D%22text%3Bhtml%3D1%3Balign%3Dleft%3BverticalAlign%3Dmiddle%3Bresizable%3D0%3Bpoints%3D%5B%5D%3Bautosize%3D1%3BstrokeColor%3Dnone%3BfillColor%3Dnone%3B%22%20vertex%3D%221%22%20parent%3D%221%22%3E%3CmxGeometry%20x%3D%22776%22%20y%3D%22451.99999999999994%22%20width%3D%22354%22%20height%3D%2226%22%20as%3D%22geometry%22%2F%3E%3C%2FmxCell%3E%3C%2Froot%3E%3C%2FmxGraphModel%3E&lt;/span&gt;&lt;br&gt;&lt;span style=&quot;color: rgba(0, 0, 0, 0); font-family: monospace; font-size: 0px;&quot;&gt;%3CmxGraphModel%3E%3Croot%3E%3CmxCell%20id%3D%220%22%2F%3E%3CmxCell%20id%3D%221%22%20parent%3D%220%22%2F%3E%3CmxCell%20id%3D%222%22%20value%3D%22Alternative%20is%20cloudwatch%20event%20listening%20to%20runinstances%20action.%22%20style%3D%22text%3Bhtml%3D1%3Balign%3Dleft%3BverticalAlign%3Dmiddle%3Bresizable%3D0%3Bpoints%3D%5B%5D%3Bautosize%3D1%3BstrokeColor%3Dnone%3BfillColor%3Dnone%3B%22%20vertex%3D%221%22%20parent%3D%221%22%3E%3CmxGeometry%20x%3D%22776%22%20y%3D%22451.99999999999994%22%20width%3D%22354%22%20height%3D%2226%22%20as%3D%22geometry%22%2F%3E%3C%2FmxCell%3E%3C%2Froot%3E%3C%2FmxGraphModel%3Eaa&lt;/span&gt;&lt;span style=&quot;color: rgba(0, 0, 0, 0); font-family: monospace; font-size: 0px;&quot;&gt;%3CmxGraphModel%3E%3Croot%3E%3CmxCell%20id%3D%220%22%2F%3E%3CmxCell%20id%3D%221%22%20parent%3D%220%22%2F%3E%3CmxCell%20id%3D%222%22%20value%3D%22Alternative%20is%20cloudwatch%20event%20listening%20to%20runinstances%20action.%22%20style%3D%22text%3Bhtml%3D1%3Balign%3Dleft%3BverticalAlign%3Dmiddle%3Bresizable%3D0%3Bpoints%3D%5B%5D%3Bautosize%3D1%3BstrokeColor%3Dnone%3BfillColor%3Dnone%3B%22%20vertex%3D%221%22%20parent%3D%221%22%3E%3CmxGeometry%20x%3D%22776%22%20y%3D%22451.99999999999994%22%20width%3D%22354%22%20height%3D%2226%22%20as%3D%22geometry%22%2F%3E%3C%2FmxCell%3E%3C%2Froot%3E%3C%2FmxGraphModel%3EAllte&lt;/span&gt;" style="text;html=1;align=left;verticalAlign=middle;resizable=0;points=[];autosize=1;strokeColor=none;fillColor=none;" parent="1" vertex="1">
                    <mxGeometry x="769" y="483.99999999999994" width="366" height="113" as="geometry"/>
                </mxCell>
                <mxCell id="jrHru4hNWrMTznHkmxCw-153" value="No processing&lt;br&gt;CFN SIGNAL SUCCESS" style="rounded=0;whiteSpace=wrap;html=1;fillColor=#d5e8d4;strokeColor=#82b366;" parent="1" vertex="1">
                    <mxGeometry x="851" y="891" width="110" height="79" as="geometry"/>
                </mxCell>
                <mxCell id="jrHru4hNWrMTznHkmxCw-158" style="edgeStyle=orthogonalEdgeStyle;rounded=0;orthogonalLoop=1;jettySize=auto;html=1;endArrow=none;endFill=0;dashed=1;" parent="1" source="jrHru4hNWrMTznHkmxCw-155" target="jrHru4hNWrMTznHkmxCw-85" edge="1">
                    <mxGeometry relative="1" as="geometry">
                        <Array as="points">
                            <mxPoint x="769" y="1019"/>
                            <mxPoint x="976" y="1019"/>
                            <mxPoint x="976" y="909"/>
                        </Array>
                    </mxGeometry>
                </mxCell>
                <mxCell id="jrHru4hNWrMTznHkmxCw-159" style="edgeStyle=orthogonalEdgeStyle;rounded=0;orthogonalLoop=1;jettySize=auto;html=1;entryX=0;entryY=0.5;entryDx=0;entryDy=0;dashed=1;endArrow=none;endFill=0;" parent="1" source="jrHru4hNWrMTznHkmxCw-155" target="jrHru4hNWrMTznHkmxCw-144" edge="1">
                    <mxGeometry relative="1" as="geometry">
                        <Array as="points">
                            <mxPoint x="769" y="1019"/>
                            <mxPoint x="1010" y="1019"/>
                        </Array>
                    </mxGeometry>
                </mxCell>
                <mxCell id="jrHru4hNWrMTznHkmxCw-155" value="Initialized via cloudformation&lt;br&gt;CFN SIGNAL SUCCESS" style="whiteSpace=wrap;html=1;rounded=0;fillColor=#d5e8d4;strokeColor=#82b366;" parent="1" vertex="1">
                    <mxGeometry x="709" y="897" width="120" height="60" as="geometry"/>
                </mxCell>
            </root>
        </mxGraphModel>
    </diagram>
</mxfile>